<?xml version="1.0" encoding="iso-8859-1"?>
<!-- Generator: Adobe Illustrator 16.0.0, SVG Export Plug-In . SVG Version: 6.00 Build 0)  -->
<!DOCTYPE svg PUBLIC "-//W3C//DTD SVG 1.1//EN" "http://www.w3.org/Graphics/SVG/1.1/DTD/svg11.dtd">
<svg version="1.1" id="Capa_1" xmlns="http://www.w3.org/2000/svg" xmlns:xlink="http://www.w3.org/1999/xlink" x="0px" y="0px"
	 width="189.19px" height="189.19px" viewBox="0 0 189.19 189.19" style="enable-background:new 0 0 189.19 189.19;"
	 xml:space="preserve">
<g>
	<g>
		<path d="M53.743,174.006c-5.679-19.998-15.21-38.492-23.142-57.625c-7.683-18.533-10.344-38.739-18.398-57.103
			c-0.063-1.598-2.002-2.395-3.04-0.897c-6.093,8.789-7.52,22.276-8.462,32.715c-1.082,11.988,0.396,24.173,3.931,35.65
			c6.527,21.193,23.537,41.607,45.188,48.299c0.004,0.013,0.009,0.026,0.013,0.039C50.6,177.573,54.459,176.53,53.743,174.006z"/>
		<path d="M124.354,177.654c-12.085-23.477-21.129-47.429-27.668-72.975c0.358-2.201-3.213-3.03-4.033-0.695
			c-4.771,13.573-10.706,26.696-15.779,40.152c-2.562,6.797-4.846,13.688-6.682,20.717c-1.02,3.904-2.705,9.165-1.671,13.346
			c-1.016,0.471-1.486,1.912-0.203,2.6c16.027,8.595,38.843,12.908,54.604,1.425c0.762-0.556,1.021-1.351,0.951-2.101
			C124.521,179.562,124.859,178.635,124.354,177.654z"/>
		<path d="M177.268,54.007c-0.038-0.043-0.084-0.057-0.124-0.094c-0.375-2.01-3.608-1.9-3.663,0.365
			c-0.979,40.324-21.292,74.3-32.841,111.772c-0.33,0.533-0.642,1.078-0.977,1.609c-0.472,0.75-0.435,1.473-0.118,2.045
			c-0.035,0.119-0.071,0.238-0.106,0.357c-0.356,1.234,1.204,2.124,2.08,1.494c0.146,0.186,0.33,0.361,0.589,0.513
			c0.728,0.426,1.42,0.394,2.062,0.129c4.475-0.25,11.688-8.489,18.187-17.351c4.609-5.271,8.558-11.16,11.688-17.452
			c1.322-2.142,2.228-3.671,2.527-4.207c5.696-10.149,9.85-19.24,11.449-30.872C190.215,86.336,188.428,66.601,177.268,54.007z"/>
		<path d="M154.056,72.854c-3.786-8.428-8.779-16.238-12.268-24.82c-1.631-4.012-2.923-8.257-2.896-12.617
			c0.04-6.836,7.211-7.833,12.568-7.868c2.104-0.014,2.566-2.529,1.4-3.657c0.342-1.044,0.16-2.308-0.922-3.139
			C123.903-0.775,86.281-6.614,53.646,8.26C40.858,14.088,30.743,22.582,21.47,32.968c-1.725,1.932-5.103,4.987-5.103,7.848
			c0,0.481,0.125,0.865,0.305,1.195c-0.027,0-0.045-0.012-0.073-0.009c-0.077-0.008-0.154-0.016-0.231-0.023
			c-0.156-0.016-0.278,0.025-0.385,0.086c-0.146,0.015-0.292,0.03-0.438,0.044c-0.82,0.083-0.82,1.191,0,1.274
			c0.146,0.015,0.292,0.03,0.438,0.044c0.107,0.061,0.229,0.102,0.385,0.086c0.077-0.008,0.154-0.016,0.231-0.024
			c0.508,0.052,0.735-0.346,0.701-0.744c0-0.003-0.001-0.006-0.001-0.01c0.169,0.115,0.351,0.212,0.548,0.28
			c0.086,0.346,0.276,0.671,0.628,0.892c2.224,1.401,6.403,0.051,8.846-0.193c3.836-0.383,7.658-0.552,11.507-0.713
			c1.888-0.079,3.764-0.046,5.65,0.064c3.194,0.187,10.149,3.648,4.599,6.85c-2.608,1.505-7.2,0.18-9.164,2.371
			c-0.608,0.679-0.65,1.661,0,2.335c0.241,0.25,0.535,0.435,0.85,0.59c1.023,13.686,6.798,26.816,11.773,39.446
			c5.959,15.127,12.021,30.099,16.173,45.847c0.372,1.41,1.683,1.735,2.727,1.334c0.641,0.103,1.321-0.146,1.76-0.934
			c8.776-15.762,11.184-33.99,19.221-50.087c0.682-1.366-0.1-2.637-1.169-3.135c-2.055-11.537-7.737-23.803-13.659-33.697
			c-0.063-0.106-0.136-0.191-0.207-0.28c0.826-0.765,0.928-2.287-0.482-2.526c-3.406-0.578-6.846-1.147-10.206-1.948
			c-1.605-0.383-6.337-3.226-2.935-5.627c1.678-1.184,4.515-1.36,6.443-1.56c5.593-0.583,11.221,0.338,16.82,0.118
			c7.907-0.311,15.71-1.405,23.645-1.163c1.224,0.037,17.797,2.505,9.377,7.989c-3.112,2.028-7.838,2.316-11.419,2.397
			c-2.211,0.05-2.586,2.902-1.13,3.841c2.24,16.808,11.496,31.361,15.947,47.572c3.523,12.834,4.63,29.07,13.268,39.791
			c0.252,1.373,2.299,2.205,2.971,0.648c5.829-13.527,11.598-27.507,15.269-41.788C157.356,92.083,158.086,81.825,154.056,72.854z"
			/>
	</g>
</g>
<g>
</g>
<g>
</g>
<g>
</g>
<g>
</g>
<g>
</g>
<g>
</g>
<g>
</g>
<g>
</g>
<g>
</g>
<g>
</g>
<g>
</g>
<g>
</g>
<g>
</g>
<g>
</g>
<g>
</g>
</svg>
